<?xml version="1.0" encoding="UTF-8"?>
<svg xmlns="http://www.w3.org/2000/svg" xmlns:xlink="http://www.w3.org/1999/xlink" width="32px" height="32px" viewBox="0 0 32 32" version="1.1">
<g id="surface1">
<path style=" stroke:none;fill-rule:nonzero;fill:rgb(87.843137%,63.921569%,44.705882%);fill-opacity:1;" d="M 23.75 13.648438 C 23.75 13.648438 21.5 11.800781 20.300781 10 C 19.851562 9.351562 18.398438 9.449219 17.898438 10.699219 L 10.101562 13.699219 L 4.949219 10.949219 C 4.148438 10.449219 3.101562 10.800781 2.648438 11.75 C 2.199219 12.648438 2.449219 13.800781 3.300781 14.300781 L 4.101562 14.75 C 3.398438 14.648438 2.648438 15 2.300781 15.699219 C 1.851562 16.601562 2.101562 17.75 2.949219 18.25 L 4.75 19.300781 C 3.949219 18.800781 2.898438 19.148438 2.449219 20.101562 C 2 21 2.25 22.148438 3.101562 22.648438 C 3.101562 22.648438 12.148438 28.25 15.25 29.898438 C 17.699219 31.25 22.550781 31.898438 25.601562 28.199219 C 26.601562 26.898438 23.75 13.648438 23.75 13.648438 "/>
<path style=" stroke:none;fill-rule:nonzero;fill:rgb(100%,88.235294%,74.117647%);fill-opacity:1;" d="M 27.5 13.648438 C 25.898438 12.550781 24.800781 11.101562 24 8.898438 C 23.699219 8.148438 22.601562 8 21.949219 9.25 C 21 11.050781 21.898438 12.5 22.398438 13.148438 L 22.648438 13.449219 C 22.648438 13.449219 22.800781 14 23.050781 14.648438 C 21.699219 14.351562 20.199219 15.101562 19.148438 16.5 C 18.050781 17.949219 15.449219 20.449219 14.351562 21.898438 C 13 23.648438 13.351562 26.148438 14.851562 27.25 C 14.851562 27.25 22.699219 33 27.898438 25.949219 C 32 20.449219 29.101562 14.75 27.5 13.648438 "/>
<path style=" stroke:none;fill-rule:nonzero;fill:rgb(100%,88.235294%,74.117647%);fill-opacity:1;" d="M 24.851562 15.75 C 25.648438 16.351562 25.851562 17.5 25.25 18.398438 C 24.699219 19.300781 23.550781 19.550781 22.75 18.949219 L 10.300781 10 C 9.5 9.398438 9.300781 8.25 9.898438 7.351562 C 10.449219 6.449219 11.601562 6.199219 12.398438 6.800781 L 24.851562 15.75 "/>
<path style=" stroke:none;fill-rule:nonzero;fill:rgb(90.196078%,71.764706%,58.823529%);fill-opacity:1;" d="M 18.398438 14.75 L 10.449219 9 C 10 8.699219 9.699219 8.199219 9.851562 7.449219 C 9.300781 8.449219 9.648438 9.449219 10.300781 9.949219 L 18.25 15.699219 C 19.050781 16.300781 19.199219 15.351562 18.398438 14.75 "/>
<path style=" stroke:none;fill-rule:nonzero;fill:rgb(100%,88.235294%,74.117647%);fill-opacity:1;" d="M 20.800781 17.5 C 21.601562 18.101562 21.800781 19.25 21.199219 20.148438 C 20.648438 21.050781 19.5 21.300781 18.699219 20.699219 L 6.25 11.699219 C 5.449219 11.101562 5.25 9.949219 5.851562 9.050781 C 6.398438 8.148438 7.550781 7.898438 8.351562 8.5 L 20.800781 17.5 "/>
<path style=" stroke:none;fill-rule:nonzero;fill:rgb(90.196078%,71.764706%,58.823529%);fill-opacity:1;" d="M 16 17.699219 L 6.398438 10.75 C 5.949219 10.449219 5.648438 9.851562 5.800781 9.199219 C 5.25 10.199219 5.550781 11.300781 6.25 11.800781 L 15.898438 18.648438 C 16.648438 19.25 16.800781 18.25 16 17.699219 "/>
<path style=" stroke:none;fill-rule:nonzero;fill:rgb(100%,88.235294%,74.117647%);fill-opacity:1;" d="M 20 21.5 C 20.800781 22.101562 21 23.25 20.398438 24.148438 C 19.851562 25.050781 18.699219 25.300781 17.898438 24.699219 L 5.449219 15.699219 C 4.648438 15.101562 4.449219 13.949219 5.050781 13.050781 C 5.601562 12.148438 6.75 11.898438 7.550781 12.5 L 20 21.5 "/>
<path style=" stroke:none;fill-rule:nonzero;fill:rgb(90.196078%,71.764706%,58.823529%);fill-opacity:1;" d="M 14.101562 20.898438 L 5.601562 14.800781 C 5.148438 14.5 4.851562 13.800781 5.050781 13.101562 C 4.398438 14.050781 4.648438 15.300781 5.351562 15.800781 L 13.949219 21.851562 C 14.75 22.449219 14.898438 21.5 14.101562 20.898438 "/>
<path style=" stroke:none;fill-rule:nonzero;fill:rgb(100%,88.235294%,74.117647%);fill-opacity:1;" d="M 19.648438 26 C 20.449219 26.601562 14.75 27.199219 13.949219 26.601562 L 5.148438 20.25 C 4.351562 19.648438 4.148438 18.5 4.75 17.601562 C 5.300781 16.699219 6.449219 16.449219 7.25 17.050781 L 19.648438 26 "/>
<path style=" stroke:none;fill-rule:nonzero;fill:rgb(90.196078%,71.764706%,58.823529%);fill-opacity:1;" d="M 29.949219 20.800781 C 29.949219 20.800781 29.101562 25.199219 25.601562 27.851562 C 22.5 30.199219 17.699219 28.148438 15.398438 26.648438 C 13 25 11.800781 24.199219 6 19.800781 C 4.898438 18.949219 4.601562 18.398438 4.75 17.5 C 3.898438 18.398438 4.351562 19.800781 5.050781 20.300781 L 5.648438 20.699219 C 5.648438 20.699219 12.601562 25.800781 14.949219 27.398438 C 17.101562 28.898438 22.648438 31.25 26.148438 28.449219 C 30.101562 25.398438 29.949219 20.800781 29.949219 20.800781 "/>
<path style=" stroke:none;fill-rule:nonzero;fill:rgb(90.196078%,71.764706%,58.823529%);fill-opacity:1;" d="M 24 15.050781 C 23 14 22.949219 12.5 22.949219 12.5 L 22.699219 12.199219 C 22.300781 11.699219 21.648438 10.648438 21.898438 9.398438 C 20.949219 11.148438 21.898438 12.550781 22.351562 13.148438 L 22.601562 13.449219 C 22.601562 13.449219 22.550781 13.898438 22.800781 14.25 L 24 15.050781 "/>
<path style=" stroke:none;fill-rule:nonzero;fill:rgb(25.882353%,67.843137%,88.627451%);fill-opacity:1;" d="M 18.898438 1 L 20.398438 7.101562 L 23.351562 1.449219 Z M 18.898438 1 "/>
<path style=" stroke:none;fill-rule:nonzero;fill:rgb(25.882353%,67.843137%,88.627451%);fill-opacity:1;" d="M 26.300781 2.800781 L 24.050781 7.851562 L 29.300781 6.5 Z M 26.300781 2.800781 "/>
<path style=" stroke:none;fill-rule:nonzero;fill:rgb(25.882353%,67.843137%,88.627451%);fill-opacity:1;" d="M 15.101562 1.75 L 16.5 7.25 L 11.898438 4.300781 Z M 15.101562 1.75 "/>
</g>
</svg>
