<?xml version="1.0" encoding="UTF-8"?>
<svg xmlns="http://www.w3.org/2000/svg" xmlns:xlink="http://www.w3.org/1999/xlink" width="16px" height="16px" viewBox="0 0 16 16" version="1.1">
<g id="surface1">
<path style=" stroke:none;fill-rule:nonzero;fill:rgb(29.411765%,42.745098%,66.666667%);fill-opacity:1;" d="M 0.429688 5.714844 L 4.429688 5.714844 L 4.429688 16 L 0.429688 16 Z M 0.429688 5.714844 "/>
<path style=" stroke:none;fill-rule:nonzero;fill:rgb(84.705882%,65.882353%,32.156863%);fill-opacity:1;" d="M 3.570312 13.429688 C 3.570312 14.0625 3.0625 14.570312 2.429688 14.570312 C 1.796875 14.570312 1.285156 14.0625 1.285156 13.429688 C 1.285156 12.796875 1.796875 12.285156 2.429688 12.285156 C 3.0625 12.285156 3.570312 12.796875 3.570312 13.429688 Z M 3.570312 13.429688 "/>
<path style=" stroke:none;fill-rule:nonzero;fill:rgb(98.431373%,80.784314%,61.568627%);fill-opacity:1;" d="M 15.285156 7.429688 C 15.285156 6.796875 14.773438 6.285156 14.140625 6.285156 L 9.6875 6.285156 L 9.96875 4.96875 C 10.183594 3.960938 10.125 2.734375 10 1.867188 C 9.867188 1.007812 9.097656 0 8.289062 0 L 8.21875 0 C 7.53125 0 7.285156 0.757812 7.285156 1.714844 C 7.285156 6.359375 5 6.285156 5 6.285156 L 4.429688 6.285156 L 4.429688 15.429688 L 12.714844 15.429688 C 13.34375 15.429688 13.859375 14.914062 13.859375 14.285156 C 13.859375 13.65625 13.34375 13.140625 12.714844 13.140625 L 13.570312 13.140625 C 14.203125 13.140625 14.714844 12.632812 14.714844 12 C 14.714844 11.367188 14.203125 10.859375 13.570312 10.859375 L 14.429688 10.859375 C 15.0625 10.859375 15.570312 10.34375 15.570312 9.714844 C 15.570312 9 15.109375 8.730469 14.429688 8.628906 C 14.09375 8.578125 13.492188 8.570312 13.285156 8.570312 L 14.140625 8.570312 C 14.773438 8.570312 15.285156 8.0625 15.285156 7.429688 Z M 15.285156 7.429688 "/>
<path style=" stroke:none;fill-rule:nonzero;fill:rgb(96.862745%,70.980392%,38.823529%);fill-opacity:1;" d="M 14.890625 8.285156 L 11.285156 8.285156 C 11.128906 8.285156 11 8.414062 11 8.570312 C 11 8.726562 11.128906 8.859375 11.285156 8.859375 L 15.132812 8.859375 C 14.945312 8.742188 14.703125 8.671875 14.429688 8.628906 C 14.09375 8.578125 13.492188 8.570312 13.285156 8.570312 L 14.140625 8.570312 C 14.429688 8.570312 14.691406 8.460938 14.890625 8.285156 Z M 14.890625 8.285156 "/>
<path style=" stroke:none;fill-rule:nonzero;fill:rgb(96.862745%,70.980392%,38.823529%);fill-opacity:1;" d="M 15.179688 10.570312 L 11.285156 10.570312 C 11.128906 10.570312 11 10.699219 11 10.859375 C 11 11.015625 11.128906 11.140625 11.285156 11.140625 L 14.320312 11.140625 C 14.117188 10.96875 13.859375 10.859375 13.570312 10.859375 L 14.429688 10.859375 C 14.71875 10.859375 14.976562 10.75 15.179688 10.570312 Z M 15.179688 10.570312 "/>
<path style=" stroke:none;fill-rule:nonzero;fill:rgb(96.862745%,70.980392%,38.823529%);fill-opacity:1;" d="M 14.320312 12.859375 L 10.714844 12.859375 C 10.554688 12.859375 10.429688 12.984375 10.429688 13.140625 C 10.429688 13.300781 10.554688 13.429688 10.714844 13.429688 L 13.460938 13.429688 C 13.261719 13.25 13 13.140625 12.714844 13.140625 L 13.570312 13.140625 C 13.859375 13.140625 14.117188 13.03125 14.320312 12.859375 Z M 14.320312 12.859375 "/>
</g>
</svg>
