<?xml version="1.0" encoding="UTF-8"?>
<svg xmlns="http://www.w3.org/2000/svg" xmlns:xlink="http://www.w3.org/1999/xlink" width="32px" height="32px" viewBox="0 0 32 32" version="1.1">
<g id="surface1">
<path style="fill-rule:nonzero;fill:rgb(23.921569%,23.921569%,23.921569%);fill-opacity:1;stroke-width:1;stroke-linecap:butt;stroke-linejoin:miter;stroke:rgb(23.921569%,23.921569%,23.921569%);stroke-opacity:1;stroke-miterlimit:4;" d="M 39.001465 38.000488 L 10.998535 38.000488 C 9.301758 38.000488 8.001709 36.700439 8.001709 34.997559 L 8.001709 15.002441 C 8.001709 13.299561 9.301758 11.999512 10.998535 11.999512 L 39.001465 11.999512 C 40.698242 11.999512 41.998291 13.299561 41.998291 15.002441 L 41.998291 34.997559 C 41.998291 36.700439 40.698242 38.000488 39.001465 38.000488 Z M 10.998535 14.001465 C 10.400391 14.001465 9.997559 14.398193 9.997559 15.002441 L 9.997559 34.997559 C 9.997559 35.601807 10.400391 35.998535 10.998535 35.998535 L 39.001465 35.998535 C 39.599609 35.998535 40.002441 35.601807 40.002441 34.997559 L 40.002441 15.002441 C 40.002441 14.398193 39.599609 14.001465 39.001465 14.001465 Z M 10.998535 14.001465 " transform="matrix(0.64,0,0,0.64,0,0)"/>
<path style="fill-rule:nonzero;fill:rgb(23.921569%,23.921569%,23.921569%);fill-opacity:1;stroke-width:1;stroke-linecap:butt;stroke-linejoin:miter;stroke:rgb(23.921569%,23.921569%,23.921569%);stroke-opacity:1;stroke-miterlimit:4;" d="M 29.998779 23.999023 C 27.801514 23.999023 26.000977 22.198486 26.000977 20.001221 C 26.000977 17.797852 27.801514 15.997314 29.998779 15.997314 C 32.202148 15.997314 34.002686 17.797852 34.002686 20.001221 C 34.002686 22.198486 32.202148 23.999023 29.998779 23.999023 Z M 29.998779 17.999268 C 28.900146 17.999268 28.00293 18.902588 28.00293 20.001221 C 28.00293 21.099854 28.900146 21.99707 29.998779 21.99707 C 31.097412 21.99707 32.000732 21.099854 32.000732 20.001221 C 32.000732 18.902588 31.097412 17.999268 29.998779 17.999268 Z M 29.998779 17.999268 " transform="matrix(0.64,0,0,0.64,0,0)"/>
<path style="fill-rule:nonzero;fill:rgb(23.921569%,23.921569%,23.921569%);fill-opacity:1;stroke-width:1;stroke-linecap:butt;stroke-linejoin:miter;stroke:rgb(23.921569%,23.921569%,23.921569%);stroke-opacity:1;stroke-miterlimit:4;" d="M 35.302734 37.701416 L 19.000244 22.399902 L 9.698486 30.999756 L 8.300781 29.602051 L 19.000244 19.598389 L 36.700439 36.297607 Z M 35.302734 37.701416 " transform="matrix(0.64,0,0,0.64,0,0)"/>
<path style="fill-rule:nonzero;fill:rgb(23.921569%,23.921569%,23.921569%);fill-opacity:1;stroke-width:1;stroke-linecap:butt;stroke-linejoin:miter;stroke:rgb(23.921569%,23.921569%,23.921569%);stroke-opacity:1;stroke-miterlimit:4;" d="M 40.39917 32.702637 L 34.997559 28.302002 L 30.499268 32.000732 L 29.199219 30.401611 L 34.997559 25.701904 L 41.601562 31.097412 Z M 40.39917 32.702637 " transform="matrix(0.64,0,0,0.64,0,0)"/>
</g>
</svg>
