<?xml version="1.0" encoding="UTF-8"?>
<svg xmlns="http://www.w3.org/2000/svg" xmlns:xlink="http://www.w3.org/1999/xlink" width="32px" height="32px" viewBox="0 0 32 32" version="1.1">
<g id="surface1">
<path style="fill-rule:nonzero;fill:rgb(23.921569%,23.921569%,23.921569%);fill-opacity:1;stroke-width:1;stroke-linecap:butt;stroke-linejoin:miter;stroke:rgb(24.313725%,23.921569%,23.921569%);stroke-opacity:1;stroke-miterlimit:4;" d="M 512 64 C 759.375 64 960 264.625 960 512 C 960 759.375 759.375 960 512 960 C 264.625 960 64 759.375 64 512 C 64 264.625 264.625 64 512 64 Z M 512 896 C 724.125 896 896 724.125 896 512 C 896 299.875 724.125 128 512 128 C 299.875 128 128 299.875 128 512 C 128 724.125 299.875 896 512 896 Z M 464 648.375 L 668.625 512 L 464 375.625 Z M 474.625 305.75 L 724.125 472.125 C 737.5 481 745.5 496 745.5 512 C 745.5 528 737.5 543 724.125 551.875 L 474.625 718.25 C 459.875 728.125 441 729 425.375 720.625 C 409.75 712.25 400 696 400 678.375 L 400 345.625 C 400 327.875 409.75 311.625 425.375 303.25 C 441 294.875 459.875 295.875 474.625 305.625 Z M 474.625 305.75 " transform="matrix(0.03125,0,0,0.03125,0,0)"/>
</g>
</svg>
